<?xml version="1.0" encoding="UTF-8" standalone="no"?>
<!DOCTYPE svg PUBLIC "-//W3C//DTD SVG 1.1//EN" "http://www.w3.org/Graphics/SVG/1.1/DTD/svg11.dtd">
<svg width="100%" height="100%" viewBox="0 0 61 29" version="1.1" xmlns="http://www.w3.org/2000/svg" xmlns:xlink="http://www.w3.org/1999/xlink" xml:space="preserve" xmlns:serif="http://www.serif.com/" style="fill-rule:evenodd;clip-rule:evenodd;stroke-linejoin:round;stroke-miterlimit:2;">
    <g transform="matrix(1,0,0,1,-70,-52)">
        <path d="M72.691,60.688C72.363,60.594 72.023,60.453 71.672,60.266C71.344,60.055 71.039,59.82 70.758,59.563C70.5,59.281 70.301,58.977 70.16,58.648C70.019,58.32 69.984,57.969 70.055,57.594C70.195,56.82 70.641,56.094 71.391,55.414C72.141,54.734 73.148,54.195 74.414,53.797L74.414,53.691C74.438,53.434 74.602,53.176 74.906,52.918C75.234,52.637 75.633,52.449 76.102,52.356C76.547,52.262 76.863,52.262 77.051,52.356C77.262,52.449 77.367,52.578 77.367,52.742C77.367,52.789 77.356,52.848 77.332,52.918L77.332,53.234C78.481,53.141 79.758,53.176 81.164,53.34C82.852,53.551 84.223,53.949 85.277,54.535C86.332,55.121 87.129,55.801 87.668,56.574C88.207,57.324 88.535,58.109 88.652,58.93C88.793,59.75 88.793,60.5 88.652,61.18C88.512,61.977 88.254,62.703 87.879,63.359C87.504,63.992 87.059,64.566 86.543,65.082C86.027,65.574 85.453,66.008 84.82,66.383C84.188,66.758 83.519,67.074 82.816,67.332C83.566,67.496 84.199,67.766 84.715,68.141C85.254,68.492 85.688,68.914 86.016,69.406C86.344,69.898 86.578,70.449 86.719,71.059C86.859,71.668 86.906,72.289 86.859,72.922C86.813,73.906 86.555,74.832 86.086,75.699C85.641,76.543 85.031,77.281 84.258,77.914C83.484,78.547 82.559,79.039 81.481,79.391C80.426,79.742 79.254,79.894 77.965,79.848L77.543,79.848C77.191,80.152 76.805,80.375 76.383,80.516C75.984,80.68 75.598,80.797 75.223,80.867C74.801,80.961 74.379,80.996 73.957,80.973L73.957,80.445C73.981,80.281 73.992,80.117 73.992,79.953C73.992,79.766 74.004,79.578 74.027,79.391C73.746,79.344 73.477,79.273 73.219,79.18C72.984,79.109 72.738,79.027 72.481,78.934C72.246,78.863 72.035,78.781 71.848,78.688C71.754,78.547 71.684,78.371 71.637,78.16C71.59,77.973 71.555,77.762 71.531,77.527C71.531,77.316 71.578,77.07 71.672,76.789C72.398,77.07 73.231,77.281 74.168,77.422C74.215,76.227 74.25,74.809 74.273,73.168C74.32,71.527 74.344,69.805 74.344,68L74.344,61.988C74.367,60.02 74.379,58.332 74.379,56.926C73.699,57.277 73.172,57.758 72.797,58.367C72.422,58.977 72.387,59.75 72.691,60.688ZM83.519,73.098C83.613,72.066 83.461,71.246 83.063,70.637C82.664,70.004 82.137,69.535 81.481,69.231C80.848,68.902 80.144,68.703 79.371,68.633C78.621,68.563 77.941,68.551 77.332,68.598C77.379,70.543 77.414,72.313 77.438,73.906C77.461,75.477 77.484,76.766 77.508,77.773C78.234,77.797 78.938,77.715 79.617,77.527C80.297,77.34 80.906,77.047 81.445,76.648C82.008,76.25 82.477,75.758 82.852,75.172C83.227,74.563 83.449,73.871 83.519,73.098ZM77.262,56.117C77.215,57.313 77.191,58.731 77.191,60.371C77.191,62.012 77.215,63.84 77.262,65.856L77.262,66.418C77.262,66.582 77.273,66.758 77.297,66.945C78.141,66.875 79.019,66.676 79.934,66.348C80.848,65.996 81.68,65.539 82.43,64.977C83.203,64.414 83.836,63.758 84.328,63.008C84.82,62.234 85.066,61.391 85.066,60.477C85.066,59.773 84.879,59.152 84.504,58.613C84.129,58.051 83.625,57.582 82.992,57.207C82.383,56.832 81.668,56.551 80.848,56.363C80.051,56.176 79.219,56.082 78.352,56.082L77.789,56.082C77.625,56.082 77.449,56.094 77.262,56.117ZM99.234,70.953C99.188,71.867 99.023,72.711 98.742,73.484C98.484,74.258 98.121,74.938 97.652,75.523C97.184,76.086 96.621,76.531 95.965,76.859C95.332,77.188 94.629,77.363 93.856,77.387C93.176,77.41 92.531,77.246 91.922,76.894C91.336,76.543 90.82,76.051 90.375,75.418C89.93,74.785 89.59,74.035 89.356,73.168C89.144,72.277 89.086,71.316 89.18,70.285C89.25,69.09 89.473,68.07 89.848,67.227C90.223,66.359 90.621,65.644 91.043,65.082C91.465,64.519 91.852,64.109 92.203,63.852C92.578,63.57 92.813,63.406 92.906,63.359C93.07,63.289 93.223,63.277 93.363,63.324C93.504,63.348 93.656,63.383 93.82,63.43C93.867,63.453 93.914,63.512 93.961,63.606C94.055,63.77 94.113,64.074 94.137,64.519C94.254,64.262 94.406,64.051 94.594,63.887C94.781,63.723 94.969,63.606 95.156,63.535C95.391,63.441 95.625,63.383 95.859,63.359C96.023,63.336 96.305,63.465 96.703,63.746C97.125,64.027 97.523,64.473 97.898,65.082C98.297,65.691 98.637,66.488 98.918,67.473C99.199,68.434 99.305,69.594 99.234,70.953ZM96.844,70.531C96.867,69.969 96.844,69.406 96.773,68.844C96.727,68.258 96.633,67.731 96.492,67.262C96.375,66.769 96.223,66.383 96.035,66.102C95.848,65.797 95.66,65.644 95.473,65.644C95.262,65.691 95.027,65.797 94.769,65.961C94.559,66.102 94.324,66.324 94.066,66.629C93.809,66.934 93.563,67.367 93.328,67.93C93.305,67.859 93.281,67.731 93.258,67.543C93.234,67.379 93.211,67.168 93.188,66.91C93.188,66.629 93.211,66.254 93.258,65.785C92.93,66.184 92.672,66.652 92.484,67.191C92.32,67.731 92.191,68.246 92.098,68.738C92.004,69.324 91.934,69.91 91.887,70.496C91.863,71.129 91.887,71.75 91.957,72.359C92.051,72.969 92.191,73.508 92.379,73.977C92.59,74.445 92.836,74.82 93.117,75.102C93.398,75.383 93.738,75.512 94.137,75.488C94.535,75.465 94.887,75.301 95.191,74.996C95.496,74.691 95.766,74.305 96,73.836C96.234,73.367 96.422,72.84 96.563,72.254C96.703,71.668 96.797,71.094 96.844,70.531ZM110.836,70.953C110.789,71.867 110.625,72.711 110.344,73.484C110.086,74.258 109.723,74.938 109.254,75.523C108.785,76.086 108.223,76.531 107.566,76.859C106.934,77.188 106.23,77.363 105.457,77.387C104.777,77.41 104.133,77.246 103.523,76.894C102.938,76.543 102.422,76.051 101.977,75.418C101.531,74.785 101.191,74.035 100.957,73.168C100.746,72.277 100.688,71.316 100.781,70.285C100.852,69.09 101.074,68.07 101.449,67.227C101.824,66.359 102.223,65.644 102.645,65.082C103.066,64.519 103.453,64.109 103.805,63.852C104.18,63.57 104.414,63.406 104.508,63.359C104.672,63.289 104.824,63.277 104.965,63.324C105.105,63.348 105.258,63.383 105.422,63.43C105.469,63.453 105.516,63.512 105.562,63.606C105.656,63.77 105.715,64.074 105.738,64.519C105.855,64.262 106.008,64.051 106.195,63.887C106.383,63.723 106.57,63.606 106.758,63.535C106.992,63.441 107.227,63.383 107.461,63.359C107.625,63.336 107.906,63.465 108.305,63.746C108.727,64.027 109.125,64.473 109.5,65.082C109.898,65.691 110.238,66.488 110.52,67.473C110.801,68.434 110.906,69.594 110.836,70.953ZM108.445,70.531C108.469,69.969 108.445,69.406 108.375,68.844C108.328,68.258 108.234,67.731 108.094,67.262C107.977,66.769 107.824,66.383 107.637,66.102C107.449,65.797 107.262,65.644 107.074,65.644C106.863,65.691 106.629,65.797 106.371,65.961C106.16,66.102 105.926,66.324 105.668,66.629C105.41,66.934 105.164,67.367 104.93,67.93C104.906,67.859 104.883,67.731 104.859,67.543C104.836,67.379 104.812,67.168 104.789,66.91C104.789,66.629 104.812,66.254 104.859,65.785C104.531,66.184 104.273,66.652 104.086,67.191C103.922,67.731 103.793,68.246 103.699,68.738C103.605,69.324 103.535,69.91 103.488,70.496C103.465,71.129 103.488,71.75 103.559,72.359C103.652,72.969 103.793,73.508 103.98,73.977C104.191,74.445 104.438,74.82 104.719,75.102C105,75.383 105.34,75.512 105.738,75.488C106.137,75.465 106.488,75.301 106.793,74.996C107.098,74.691 107.367,74.305 107.602,73.836C107.836,73.367 108.023,72.84 108.164,72.254C108.305,71.668 108.398,71.094 108.445,70.531ZM119.836,68.598C120.328,68.809 120.797,69.148 121.242,69.617C121.688,70.063 121.969,70.742 122.086,71.656C122.18,72.453 122.309,73.168 122.473,73.801C122.637,74.434 122.871,75.008 123.176,75.523C123.48,76.016 123.879,76.461 124.371,76.859C124.887,77.234 125.543,77.563 126.34,77.844C126.129,78.031 125.871,78.184 125.566,78.301C125.285,78.418 125.016,78.5 124.758,78.547C124.453,78.641 124.137,78.688 123.809,78.688C123.035,78.758 122.402,78.652 121.91,78.371C121.418,78.113 121.031,77.727 120.75,77.211C120.469,76.695 120.258,76.098 120.117,75.418C119.977,74.738 119.871,74.035 119.801,73.309C119.777,73.004 119.742,72.688 119.695,72.359C119.648,72.031 119.566,71.715 119.449,71.41C119.332,71.106 119.168,70.824 118.957,70.566C118.77,70.309 118.523,70.109 118.219,69.969C117.703,70.367 117.223,70.719 116.777,71.023C116.355,71.305 115.98,71.539 115.652,71.727C115.676,72.992 115.734,74.035 115.828,74.856C115.945,75.676 116.098,76.227 116.285,76.508C116.121,76.625 115.957,76.731 115.793,76.824C115.629,76.894 115.488,76.953 115.371,77C115.207,77.07 115.055,77.117 114.914,77.141C114.445,77.281 114.023,77.258 113.648,77.07C113.297,76.906 113.109,76.449 113.086,75.699L112.875,55.168C112.875,54.981 113.051,54.793 113.402,54.606C113.777,54.395 114.188,54.231 114.633,54.113C115.078,53.996 115.477,53.938 115.828,53.938C116.203,53.938 116.379,54.043 116.355,54.254C116.285,55.871 116.215,57.395 116.145,58.824C116.074,60.254 116.016,61.52 115.969,62.621C115.898,63.91 115.84,65.082 115.793,66.137C115.746,66.769 115.711,67.379 115.688,67.965C115.688,68.551 115.676,69.113 115.652,69.652C116.098,69.301 116.566,68.914 117.059,68.492C117.551,68.07 118.02,67.602 118.465,67.086C118.91,66.57 119.285,66.019 119.59,65.434C119.895,64.824 120.07,64.18 120.117,63.5C120.375,63.313 120.633,63.16 120.891,63.043C121.172,62.902 121.418,62.797 121.629,62.727C121.887,62.633 122.121,62.586 122.332,62.586C122.871,62.563 123.188,62.68 123.281,62.938C123.352,63.125 123.34,63.406 123.246,63.781C123.176,64.133 123,64.566 122.719,65.082C122.461,65.574 122.098,66.125 121.629,66.734C121.16,67.32 120.562,67.941 119.836,68.598ZM125.672,64.555C125.672,64.414 125.859,64.262 126.234,64.098C126.609,63.934 127.02,63.805 127.465,63.711C127.934,63.594 128.355,63.535 128.73,63.535C129.129,63.512 129.328,63.594 129.328,63.781C129.328,64.133 129.305,64.637 129.258,65.293C129.211,65.926 129.152,66.606 129.082,67.332C129.012,68.035 128.941,68.75 128.871,69.477C128.801,70.18 128.754,70.777 128.73,71.269C128.684,71.785 128.637,72.348 128.59,72.957C128.543,73.473 128.508,74.047 128.484,74.68C128.461,75.313 128.461,75.957 128.484,76.613C128.484,76.731 128.367,76.848 128.133,76.965C127.898,77.082 127.641,77.164 127.359,77.211C127.078,77.281 126.809,77.316 126.551,77.316C126.293,77.316 126.152,77.269 126.129,77.176C126.082,77.082 126.035,76.918 125.988,76.684C125.941,76.449 125.895,76.121 125.848,75.699C125.801,75.254 125.766,74.691 125.742,74.012C125.719,73.309 125.73,72.465 125.777,71.481C125.871,69.535 125.883,68.035 125.812,66.981C125.742,65.902 125.695,65.094 125.672,64.555ZM128.133,57.559C128.602,57.559 129.047,57.699 129.469,57.981C129.891,58.262 130.102,58.637 130.102,59.106C130.102,59.457 130.008,59.797 129.82,60.125C129.656,60.453 129.445,60.746 129.188,61.004C128.93,61.262 128.637,61.473 128.309,61.637C127.98,61.777 127.676,61.848 127.395,61.848C127.02,61.848 126.715,61.789 126.48,61.672C126.246,61.531 126.059,61.379 125.918,61.215C125.801,61.027 125.719,60.828 125.672,60.617C125.625,60.406 125.602,60.207 125.602,60.02C125.602,59.785 125.637,59.527 125.707,59.246C125.777,58.941 125.906,58.672 126.094,58.438C126.281,58.18 126.539,57.969 126.867,57.805C127.195,57.641 127.617,57.559 128.133,57.559ZM127.254,60.828C127.395,60.828 127.547,60.781 127.711,60.688C127.898,60.57 128.062,60.441 128.203,60.301C128.367,60.16 128.496,60.008 128.59,59.844C128.707,59.68 128.766,59.539 128.766,59.422C128.766,59.234 128.672,59.141 128.484,59.141C128.367,59.141 128.215,59.188 128.027,59.281C127.863,59.375 127.699,59.492 127.535,59.633C127.371,59.75 127.23,59.891 127.113,60.055C127.02,60.195 126.973,60.336 126.973,60.477C126.973,60.711 127.066,60.828 127.254,60.828Z" style="fill:rgb(0,101,252);fill-rule:nonzero;"/>
    </g>
</svg>
